<svg viewBox="0 0 128 26" fill="none" xmlns="http://www.w3.org/2000/svg">
<path d="M11.9619 4.30762C11.848 4.26204 11.7113 4.18229 11.5518 4.06836C11.3923 3.95443 11.1644 3.85189 10.8682 3.76074C10.5719 3.64681 10.196 3.55566 9.74023 3.4873C9.28451 3.41895 8.70345 3.40755 7.99707 3.45312V0.000976562C8.99967 0.023763 10.0137 0.137695 11.0391 0.342773C12.0872 0.525065 12.9303 0.821289 13.5684 1.23145C13.4316 1.52767 13.2721 1.85807 13.0898 2.22266C12.9076 2.56445 12.7367 2.89486 12.5771 3.21387C12.4176 3.51009 12.2809 3.76074 12.167 3.96582C12.0531 4.1709 11.9847 4.28483 11.9619 4.30762ZM0.169922 7.04199C0.169922 6.03939 0.34082 5.13932 0.682617 4.3418C1.02441 3.54427 1.48014 2.84928 2.0498 2.25684C2.64225 1.6416 3.32585 1.16309 4.10059 0.821289C4.89811 0.456706 5.72982 0.217448 6.5957 0.103516V3.69238C5.86654 3.94303 5.2627 4.38737 4.78418 5.02539C4.30566 5.64062 4.06641 6.26725 4.06641 6.90527C4.06641 7.79395 4.30566 8.51172 4.78418 9.05859C5.2627 9.60547 5.86654 10.084 6.5957 10.4941V14.3906C5.84375 14.026 5.0918 13.6387 4.33984 13.2285C3.58789 12.7956 2.9043 12.2943 2.28906 11.7246C1.67383 11.1549 1.16113 10.4941 0.750977 9.74219C0.363607 8.99023 0.169922 8.09017 0.169922 7.04199ZM0.716797 20.9873C1.03581 21.1696 1.43457 21.3519 1.91309 21.5342C2.41439 21.6937 2.92708 21.8532 3.45117 22.0127C3.97526 22.1494 4.49935 22.2633 5.02344 22.3545C5.54753 22.4456 6.03743 22.4912 6.49316 22.4912H6.5957V25.7383H6.52734C5.98047 25.7383 5.41081 25.7041 4.81836 25.6357C4.2487 25.5902 3.66764 25.499 3.0752 25.3623C2.48275 25.2256 1.91309 25.0433 1.36621 24.8154C0.842122 24.5648 0.386393 24.2686 -0.000976562 23.9268L0.716797 20.9873ZM7.99707 11.1777C8.74902 11.5195 9.51237 11.8841 10.2871 12.2715C11.0846 12.6589 11.8024 13.1374 12.4404 13.707C13.0785 14.2539 13.6025 14.9261 14.0127 15.7236C14.4229 16.5212 14.6279 17.5124 14.6279 18.6973C14.6279 19.5176 14.4684 20.3151 14.1494 21.0898C13.8532 21.8646 13.4202 22.571 12.8506 23.209C12.3037 23.8242 11.6201 24.3483 10.7998 24.7812C9.97949 25.2142 9.04525 25.499 7.99707 25.6357V22.3545C9.86556 21.8988 10.7998 20.6569 10.7998 18.6289C10.7998 17.8314 10.5378 17.1706 10.0137 16.6465C9.48958 16.1224 8.81738 15.6325 7.99707 15.1768V11.1777Z" fill="#A18A68"/>
<path d="M38.1436 0.411133V25.6016H34.042V14.2539H24.54V11.4512H34.042V0.411133H38.1436ZM18.9688 0.411133H23.1387V25.6016H18.9688V0.411133ZM43.9883 12.8867C43.9883 10.8587 44.2275 9.06999 44.7061 7.52051C45.2074 5.94824 45.891 4.62663 46.7568 3.55566C47.6455 2.46191 48.6823 1.63021 49.8672 1.06055C51.0749 0.468099 52.3851 0.126302 53.7979 0.0351562V3.45312C53.0231 3.54427 52.2939 3.78353 51.6104 4.1709C50.9268 4.55827 50.3343 5.12793 49.833 5.87988C49.3317 6.63184 48.9329 7.58887 48.6367 8.75098C48.3405 9.91309 48.181 11.2917 48.1582 12.8867C48.181 14.5046 48.3405 15.8945 48.6367 17.0566C48.9329 18.196 49.3317 19.153 49.833 19.9277C50.3571 20.7025 50.9609 21.2949 51.6445 21.7051C52.3281 22.0924 53.0459 22.3203 53.7979 22.3887V25.7725C52.4079 25.6813 51.109 25.3509 49.9014 24.7812C48.6937 24.1888 47.6455 23.3571 46.7568 22.2861C45.891 21.1924 45.2074 19.8594 44.7061 18.2871C44.2275 16.7148 43.9883 14.9147 43.9883 12.8867ZM55.165 0.0351562C56.555 0.103516 57.8424 0.433919 59.0273 1.02637C60.235 1.61882 61.2718 2.46191 62.1377 3.55566C63.0264 4.62663 63.7214 5.94824 64.2227 7.52051C64.724 9.06999 64.9746 10.8587 64.9746 12.8867C64.9746 14.9147 64.724 16.7148 64.2227 18.2871C63.7214 19.8594 63.0264 21.1924 62.1377 22.2861C61.2718 23.3571 60.2464 24.1888 59.0615 24.7812C57.8766 25.3509 56.5778 25.6813 55.165 25.7725V22.3887C55.9398 22.2975 56.6689 22.0583 57.3525 21.6709C58.0361 21.2607 58.6286 20.6797 59.1299 19.9277C59.6312 19.153 60.0299 18.196 60.3262 17.0566C60.6224 15.8945 60.7819 14.5046 60.8047 12.8867C60.7819 11.2689 60.6224 9.8903 60.3262 8.75098C60.0299 7.58887 59.6198 6.63184 59.0957 5.87988C58.5944 5.10514 58.002 4.52409 57.3184 4.13672C56.6348 3.72656 55.917 3.4873 55.165 3.41895V0.0351562ZM70.7168 0.411133H74.8184V25.6016H70.7168V0.411133ZM77.9629 0.411133C79.0339 0.411133 80.0934 0.582031 81.1416 0.923828C82.1898 1.26562 83.124 1.77832 83.9443 2.46191C84.7874 3.14551 85.4596 3.97721 85.9609 4.95703C86.485 5.91406 86.7471 6.99642 86.7471 8.2041C86.7471 9.48014 86.5306 10.6423 86.0977 11.6904C85.6647 12.7158 85.0609 13.5817 84.2861 14.2881C83.5114 14.9945 82.5771 15.5413 81.4834 15.9287C80.3896 16.3161 79.182 16.5098 77.8604 16.5098H76.2197V13.502H78.5781C79.0794 13.502 79.5693 13.4222 80.0479 13.2627C80.5492 13.0804 81.0049 12.7956 81.415 12.4082C81.8252 12.0208 82.1556 11.4854 82.4062 10.8018C82.6569 10.0954 82.7822 9.22949 82.7822 8.2041C82.7822 7.79395 82.7253 7.32682 82.6113 6.80273C82.4974 6.25586 82.2581 5.74316 81.8936 5.26465C81.5518 4.76335 81.0618 4.35319 80.4238 4.03418C79.7858 3.69238 78.9427 3.52148 77.8945 3.52148H76.2197V0.411133H77.9629ZM91.3955 0.411133H95.4971V25.6016H91.3955V0.411133ZM98.6416 0.411133C99.7126 0.411133 100.772 0.582031 101.82 0.923828C102.868 1.26562 103.803 1.77832 104.623 2.46191C105.466 3.14551 106.138 3.97721 106.64 4.95703C107.164 5.91406 107.426 6.99642 107.426 8.2041C107.426 9.48014 107.209 10.6423 106.776 11.6904C106.343 12.7158 105.74 13.5817 104.965 14.2881C104.19 14.9945 103.256 15.5413 102.162 15.9287C101.068 16.3161 99.8607 16.5098 98.5391 16.5098H96.8984V13.502H99.2568C99.7581 13.502 100.248 13.4222 100.727 13.2627C101.228 13.0804 101.684 12.7956 102.094 12.4082C102.504 12.0208 102.834 11.4854 103.085 10.8018C103.336 10.0954 103.461 9.22949 103.461 8.2041C103.461 7.79395 103.404 7.32682 103.29 6.80273C103.176 6.25586 102.937 5.74316 102.572 5.26465C102.23 4.76335 101.741 4.35319 101.103 4.03418C100.465 3.69238 99.6214 3.52148 98.5732 3.52148H96.8984V0.411133H98.6416ZM112.211 0.411133H116.381V25.6016H112.211V0.411133ZM126.908 14.2539H117.782V11.4512H126.908V14.2539ZM117.782 22.4912H127.968V25.6016H117.782V22.4912ZM127.968 0.411133V3.52148H117.782V0.411133H127.968Z" fill="black"/>
</svg>
